<?xml version="1.0" encoding="utf-8"?>
<!-- Generator: Adobe Illustrator 25.2.0, SVG Export Plug-In . SVG Version: 6.00 Build 0)  -->
<svg version="1.1" id="katman_1" xmlns="http://www.w3.org/2000/svg" xmlns:xlink="http://www.w3.org/1999/xlink" x="0px" y="0px"
	 viewBox="0 0 180 180" style="enable-background:new 0 0 180 180;" xml:space="preserve">
<style type="text/css">
	.st0{fill:#7700AA;}
	.st1{fill:#212121;}
	.st2{fill:#F5F5F5;}
	.st3{fill:none;stroke:#FFFFFF;}
	.st4{fill:none;stroke:#000000;stroke-width:2;stroke-linecap:round;stroke-linejoin:round;}
</style>
<g>
	<path class="st0" d="M42.5,24h92c13,0,23.5,10.5,23.5,23.5l0,0c0,13-10.5,23.5-23.5,23.5h-92C29.5,71,19,60.5,19,47.5l0,0
		C19,34.5,29.5,24,42.5,24z"/>
	<g>
		<path class="st1" d="M115.3,64c-0.3,0.5-0.9,0.6-1.4,0.3c-0.5-0.3-0.6-0.9-0.3-1.4l0,0c8.8-14.7,4.1-33.7-10.6-42.5
			c-0.5-0.3-0.6-0.9-0.3-1.4c0.3-0.5,0.9-0.6,1.4-0.3C119.6,28.1,124.7,48.4,115.3,64L115.3,64z M58.7,30c0.3-0.5,0.9-0.6,1.4-0.3
			c0.5,0.3,0.6,0.9,0.3,1.4C51.6,45.7,56.4,64.8,71,73.6c0.5,0.3,0.6,0.9,0.3,1.4s-0.9,0.6-1.4,0.3C54.4,65.9,49.3,45.6,58.7,30
			L58.7,30z"/>
	</g>
	<g>
		<path class="st1" d="M96.4,67c-0.5,0.2-1.1,0-1.3-0.5c-0.2-0.5,0-1.1,0.5-1.3l0,0c10.6-4.7,15.4-17.1,10.6-27.7
			c-0.2-0.5,0-1.1,0.5-1.3c0.5-0.2,1.1,0,1.3,0.5C113.2,48.2,108,61.8,96.4,67z M76.3,26.9c0.5-0.2,1.1,0,1.3,0.5s0,1.1-0.5,1.3
			c0,0,0,0,0,0c-10.6,4.7-15.4,17.1-10.6,27.7c0.2,0.5,0,1.1-0.5,1.3c-0.5,0.2-1.1,0-1.3-0.5C59.5,45.7,64.7,32.1,76.3,26.9z"/>
	</g>
	<g>
		<path class="st1" d="M85,33.2c0.5-0.1,1,0.3,1.1,0.9c0.1,0.5-0.3,1-0.9,1.1c-6,0.6-10.4,6-9.8,12.1c0.1,0.5-0.3,1-0.9,1.1
			s-1-0.3-1.1-0.9l0,0C72.7,40.4,77.9,34,85,33.2z M97.7,52.4c-0.3,0.5-0.9,0.7-1.4,0.4s-0.7-0.9-0.4-1.4c2.9-5.3,1-12-4.3-15
			c-0.5-0.3-0.7-0.9-0.4-1.4c0.3-0.5,0.9-0.7,1.4-0.4C98.9,38.2,101.2,46.1,97.7,52.4z"/>
	</g>
	<path class="st2" d="M74.8,109.7C60.1,96.5,51.2,91.3,48,94c-3.2,2.8-0.5,10.3,7.9,22.7l30.2,44h41c3.6-14.7,5.4-25.2,5.4-31.3
		c0-9.2-3.9-31.9-7.5-35.5c-2.4-2.4-5.2-3.3-8.4-2.8c-1.9-7.8-5.7-10.5-11.3-8.2c-0.9-5.5-2.6-10.1-8.6-10.1c-2.2,0-3.7,0.2-4.4,0.6
		V46.7c-0.4-3.2-2.1-4.9-5.2-4.9c-3.1,0-4.9,1.6-5.6,4.9L74.8,109.7L74.8,109.7z"/>
	<path class="st3" d="M92.1,98.8V73.5 M106.5,103.9c-0.6-13-1-20-1.4-20.9 M116.9,105c0-8.2-0.2-12.9-0.5-14"/>
	<path class="st4" d="M71.1,108.1c-1.8-1.6-20.3-19.8-24.4-12.5c-1.7,3.1,4.5,14.6,4.9,15.2c11.2,17.1,23.3,33.6,34.9,50.4
		 M74.9,105.5c2.7-19,1.8-41.4,7.2-60c1.3-4.3,8.8-3.5,9.1,0.9c1.1,17.6,0.9,35.2,1.4,52.8 M92.5,74.2c16.7,3.9,11.4,9.9,13.8,30.2
		 M105,83.6c13.3,0,11.6,10.3,12.2,21.4"/>
	<path class="st4" d="M116.5,91.8c17,0,15.8,31.5,15.7,40.4c-0.1,7.1-1.7,14-3.3,20.9c-0.6,2.8-0.4,7.4-3.3,8
		c-10.3,2.3-21.1-0.2-31.6-0.2 M81.6,24.3l21.9-0.1 M114.9,24.1c16-0.3,19.4-2.9,31.5,2.9c15.5,7.4,13.5,31.9,0.4,40.5
		c-8.5,5.6-38.3,3.4-47.2,3.6 M81.9,24.3C75,24.3,37,21.6,27.4,29c-9.6,7.4-11.7,33.2,4.3,39.9c8.8,3.7,21.1,2.6,29.9,2.7"/>
</g>
</svg>
