<?xml version="1.0" encoding="utf-8"?>
<!-- Generator: Adobe Illustrator 25.2.0, SVG Export Plug-In . SVG Version: 6.00 Build 0)  -->
<svg version="1.1" id="katman_1" xmlns="http://www.w3.org/2000/svg" xmlns:xlink="http://www.w3.org/1999/xlink" x="0px" y="0px"
	 viewBox="0 0 61 63" style="enable-background:new 0 0 61 63;" xml:space="preserve">
<style type="text/css">
	.st0{fill:#F036FF;}
</style>
<g>
	<path class="st0" d="M33.8,44h-6.6c-2.3,0-4.2,1.8-4.2,4s1.9,4,4.2,4h6.6c2.3,0,4.2-1.8,4.2-4S36.1,44,33.8,44z M33.8,49.7h-6.6
		c-1,0-1.8-0.8-1.8-1.7s0.8-1.7,1.8-1.7h6.6c1,0,1.8,0.8,1.8,1.7S34.8,49.7,33.8,49.7z"/>
	<path class="st0" d="M58,19h-0.2v-0.7c0-1.7-1.4-3.1-3.1-3.1h-4.3v-4.5c0-3.7-2.3-6.9-5.8-8.1l-1.4-0.5C39.1,0.7,34.8,0,30.5,0
		s-8.6,0.7-12.8,2.1l-1.4,0.5c-3.5,1.2-5.8,4.4-5.8,8.1v4.5H6.2c-1.7,0-3.1,1.4-3.1,3.1V19H3c-1.7,0-3,1.4-3,3v7.7c0,1.7,1.3,3,3,3
		h0.2v0.7c0,1.2,0.8,2.3,1.9,2.7l5.4,1.7v13.7c0,2.3,1.5,4.3,3.6,4.9v3.1c0,2,1.6,3.6,3.6,3.6h2.9c2,0,3.6-1.6,3.6-3.6v-2.9h12.5
		v2.9c0,2,1.6,3.6,3.6,3.6h2.9c2,0,3.6-1.6,3.6-3.6v-3.1c2.2-0.7,3.6-2.7,3.6-4.9V37.7l5.4-1.7c1.2-0.4,2-1.4,2-2.7v-0.7H58
		c1.7,0,3-1.4,3-3V22C61,20.3,59.7,19,58,19z M3.2,30.2H3c-0.3,0-0.5-0.2-0.5-0.5V22c0-0.3,0.2-0.5,0.5-0.5h2.9
		c0.3,0,0.5,0.2,0.5,0.5v7.7c0,0.3-0.2,0.5-0.5,0.5H3.2L3.2,30.2z M10.5,35.1l-4.7-1.5c-0.1,0-0.2-0.2-0.2-0.3v-0.7h0.3
		c1.7,0,3-1.4,3-3V22c0-1.7-1.3-3-3-3H5.6v-0.7c0-0.4,0.3-0.6,0.6-0.6h4.3V35.1L10.5,35.1z M20.7,60.5h-2.9c-0.6,0-1.1-0.5-1.1-1.1
		v-2.9h5.2v2.9C21.8,60,21.3,60.5,20.7,60.5z M43.2,60.5h-2.9c-0.6,0-1.1-0.5-1.1-1.1v-2.9h5.2v2.9C44.4,60,43.9,60.5,43.2,60.5z
		 M48,51.3c0,1.5-1.2,2.7-2.7,2.7H15.6c-1.5,0-2.7-1.2-2.7-2.7V42h35L48,51.3L48,51.3z M48,39.6H31L17.8,27c-0.5-0.5-1.3-0.4-1.7,0
		l0,0c-0.5,0.5-0.4,1.3,0,1.7l11.4,10.9H13V14h4.4v2.3c0,2.4,2,4.4,4.4,4.4h7.1c0.7,0,1.2-0.6,1.2-1.2c0-0.7-0.5-1.2-1.2-1.2h-7.1
		c-1.1,0-1.9-0.9-1.9-1.9V14h21.2v2.2c0,1.1-0.9,1.9-1.9,1.9h-0.5c-0.7,0-1.2,0.5-1.2,1.2s0.5,1.2,1.2,1.2h0.5c2.4,0,4.4-2,4.4-4.4
		V14H48V39.6L48,39.6z M48,11.5H13v-0.9c0-2.6,1.7-4.9,4.1-5.8l1.4-0.5c1.3-0.4,2.5-0.8,3.8-1.1h0.1c0.1,0,0.3-0.1,0.4-0.1h0.1
		C23,3.1,23.2,3,23.3,3h0.1c0.2,0,0.3-0.1,0.5-0.1H24c0.2,0,0.3-0.1,0.5-0.1l0,0c2-0.3,4.1-0.5,6.1-0.5l0,0c0.2,0,0.4,0,0.5,0l0,0
		c0.2,0,0.4,0,0.5,0l0,0h0.5h0.1h0.5h0.1c0.2,0,0.3,0,0.5,0h0.1c0.2,0,0.3,0,0.5,0H34c0.1,0,0.3,0,0.4,0h0.1c0.1,0,0.3,0,0.4,0h0.2
		l0.4,0.1c0.1,0,0.1,0,0.2,0l0.4,0.1h0.2L36.8,3H37l0.3,0.1h0.3c0.1,0,0.2,0,0.3,0.1l0.3,0.1l0.3,0.1c0.1,0,0.2,0.1,0.3,0.1H39
		c1.2,0.3,2.3,0.6,3.5,1L43.9,5c2.5,0.8,4.1,3.2,4.1,5.8C48,10.7,48,11.5,48,11.5z M55.4,33.3c0,0.1-0.1,0.3-0.2,0.3l-4.7,1.5V17.6
		h4.3c0.4,0,0.6,0.3,0.6,0.6V19h-0.3c-1.7,0-3,1.4-3,3v7.7c0,1.7,1.3,3,3,3h0.3L55.4,33.3L55.4,33.3z M58.6,29.6
		c0,0.3-0.2,0.5-0.5,0.5h-2.9c-0.3,0-0.5-0.2-0.5-0.5V22c0-0.3,0.2-0.5,0.5-0.6H58c0.3,0,0.5,0.2,0.5,0.5L58.6,29.6L58.6,29.6z"/>
	<path class="st0" d="M32.8,4h-5.6C26.5,4,26,4.4,26,5s0.5,1,1.2,1h5.6C33.5,6,34,5.6,34,5S33.5,4,32.8,4z M35.8,8H25.2
		C24.5,8,24,8.4,24,9s0.5,1,1.2,1h10.6c0.7,0,1.2-0.4,1.2-1S36.5,8,35.8,8z M17.5,43c-1.9,0-3.5,1.6-3.5,3.5s1.6,3.5,3.5,3.5
		s3.5-1.6,3.5-3.5S19.4,43,17.5,43z M17.5,47.8c-0.7,0-1.3-0.6-1.3-1.3s0.6-1.3,1.3-1.3s1.3,0.6,1.3,1.3S18.2,47.8,17.5,47.8z
		 M43.5,43c-1.9,0-3.5,1.6-3.5,3.5s1.6,3.5,3.5,3.5s3.5-1.6,3.5-3.5S45.4,43,43.5,43z M43.5,47.8c-0.7,0-1.3-0.6-1.3-1.3
		s0.6-1.3,1.3-1.3s1.3,0.6,1.3,1.3S44.2,47.8,43.5,47.8z M35,18.8c-0.1-0.3-0.3-0.6-0.6-0.7s-0.7-0.1-0.9,0.1
		c-0.1,0.1-0.2,0.2-0.3,0.3c-0.1,0.1-0.1,0.2-0.1,0.4c-0.1,0.3,0,0.7,0.3,0.9c0.1,0.1,0.2,0.2,0.3,0.2c0.4,0.2,0.8,0.1,1.1-0.2
		c0.1-0.1,0.2-0.2,0.2-0.3c0-0.2,0-0.4,0-0.5S35,18.9,35,18.8z"/>
</g>
</svg>
