<?xml version="1.0" encoding="utf-8"?>
<!-- Generator: Adobe Illustrator 25.2.0, SVG Export Plug-In . SVG Version: 6.00 Build 0)  -->
<svg version="1.1" id="katman_1" xmlns="http://www.w3.org/2000/svg" xmlns:xlink="http://www.w3.org/1999/xlink" x="0px" y="0px"
	 viewBox="0 0 70 46" style="enable-background:new 0 0 70 46;" xml:space="preserve">
<style type="text/css">
	.st0{fill:#F036FF;}
</style>
<g>
	<path class="st0" d="M69.6,32.3v-5c0-1.2-0.2-2.3-0.5-3.4l0,0c0-0.1,0-0.1-0.1-0.2c0-0.1,0-0.1-0.1-0.2c-1.2-3.3-4-5.9-7.4-6.8l0,0
		c-0.3-0.1-0.7-0.2-1-0.2h-0.1c-0.3,0-0.6-0.1-0.9-0.1h-0.2c-0.2,0-0.3,0-0.5,0h-9.3c-0.3,0-0.5-0.2-0.6-0.4l-4-11.1
		c-0.9-2.5-3.3-4.2-6-4.2H16.3c-4.4,0-8.3,2.7-9.9,6.8l-2.5,6.4c-0.9,2.4-1.4,4.9-1.5,7.4c0,0,0,0,0,0.1v9.9C1,31.8,0,33.3,0,34.9
		v2.5c0,2.2,1.8,4,4,4h3.8c0.8,0,1.4-0.6,1.4-1.4v-1.5h1.6c0.6,4,4,7.1,8.2,7.1s7.6-3.1,8.2-7.1H43c0.6,4,4,7.1,8.2,7.1
		s7.6-3.1,8.2-7.1h1.4c0.2,1.2,1.2,2.1,2.4,2.1h2.5c2.5,0,4.5-2,4.5-4.5v-1.8C70,33.5,69.8,32.9,69.6,32.3z M59.2,19.1
		c0.1,0,0.2,0,0.4,0h0.1c0.3,0,0.5,0.1,0.8,0.1c2.2,0.5,4,1.8,5.2,3.6h-3.9c-1.5,0-2.8-1.3-2.8-2.8v-1L59.2,19.1
		C59.1,19.1,59.2,19.1,59.2,19.1L59.2,19.1z M5.2,22.6h0.6c1.2,0,2.1,1,2.1,2.2v0.1c0,1.2-1,2.2-2.1,2.2H5.2V22.6L5.2,22.6z
		 M6.4,35.7v2.9H4c-0.3,0-0.6-0.1-0.8-0.3c-0.3-0.2-0.5-0.6-0.5-1v-2.5c0-0.7,0.6-1.3,1.2-1.3h2.4C6.4,33.6,6.4,35.7,6.4,35.7z
		 M24.4,38.5c-0.5,2.5-2.8,4.4-5.4,4.4s-4.9-1.9-5.4-4.4c-0.2-0.9-0.2-1.9,0.1-2.8c0.7-2.3,2.8-4,5.3-4s4.6,1.7,5.3,4
		C24.5,36.6,24.6,37.6,24.4,38.5z M56.5,38.5c-0.5,2.5-2.8,4.4-5.4,4.4c-2.6,0-4.9-1.9-5.4-4.4c-0.2-0.9-0.2-1.9,0.1-2.8
		c0.7-2.3,2.8-4,5.3-4s4.6,1.7,5.3,4C56.7,36.6,56.7,37.6,56.5,38.5z M60.6,32.1v3.6h-1.4c-0.7-3.9-4.1-6.8-8.1-6.8
		s-7.4,2.9-8.1,6.8H27.1c-0.7-3.9-4.1-6.8-8.1-6.8s-7.4,2.9-8.1,6.8H9.1v-3.5c0-0.8-0.6-1.4-1.4-1.4H5.2v-1.1h0.6
		c2.7,0,4.9-2.2,4.9-4.9v-0.1c0-2.7-2.2-4.9-4.9-4.9H5.2c0.2-1.8,0.6-3.5,1.2-5.1L9,8.4c1.2-3.1,4.1-5,7.4-5h22.5
		c1.5,0,2.9,1,3.4,2.4l4,11.1c0.5,1.3,1.8,2.2,3.2,2.2h6.7v1c0,3.1,2.5,5.6,5.5,5.6h5c0.1,0.5,0.2,1,0.2,1.6v2.6
		c-0.4-0.1-0.9-0.2-1.3-0.2H63C61.7,29.7,60.6,30.8,60.6,32.1L60.6,32.1z M67.3,36c0,1-0.8,1.8-1.8,1.8h-2.2v-5.3h2.2
		c0.5,0,1,0.2,1.3,0.6c0.3,0.3,0.4,0.7,0.4,1.2L67.3,36L67.3,36z"/>
	<path class="st0" d="M43.9,17.4l-3.1-9.5c-0.6-1.9-2.4-3.1-4.3-3.2H16.6c-2.7,0-5.2,1.8-6,4.4L8,16.9c-0.3,1-0.2,2.1,0.5,3
		c0.6,0.9,1.6,1.4,2.7,1.4h1.5c0.8,0,1.4-0.6,1.4-1.4s-0.6-1.4-1.4-1.4h-1.5c-0.2,0-0.3-0.1-0.4-0.2c-0.1-0.1-0.1-0.3-0.1-0.5
		l2.6-7.8c0.5-1.5,1.9-2.5,3.4-2.5h8.4v11h-1.4c-0.8,0-1.4,0.6-1.4,1.4s0.6,1.4,1.4,1.4h17.4c0.9,0,1.8-0.5,2.4-1.2
		C44,19.3,44.2,18.3,43.9,17.4z M41.3,18.4l-0.1,0.1H27.8v-11h8.6c0.8,0,1.5,0.5,1.7,1.2l3.1,9.5C41.3,18.3,41.3,18.4,41.3,18.4z
		 M41.1,30.7H29.7c-0.8,0-1.4,0.5-1.4,1.2s0.6,1.2,1.4,1.2h11.4c0.8,0,1.4-0.5,1.4-1.2S41.8,30.7,41.1,30.7z M20.4,37.1
		c-0.1-0.3-0.2-0.6-0.5-0.8c-0.1-0.1-0.3-0.1-0.4-0.2c-0.2,0-0.5,0-0.7,0.1s-0.4,0.2-0.5,0.4s-0.2,0.4-0.2,0.7c0,0.4,0.2,0.8,0.5,1
		c0,0,0,0,0.1,0c0.1,0.1,0.2,0.1,0.4,0.1c0.3,0.1,0.6,0,0.8-0.1c0,0,0,0,0.1,0c0.1-0.1,0.2-0.2,0.3-0.3c0.1-0.2,0.2-0.4,0.2-0.7
		C20.5,37.3,20.4,37.2,20.4,37.1z M51.9,37.1c0-0.2-0.1-0.3-0.2-0.4c0-0.1-0.1-0.1-0.1-0.2c-0.3-0.3-0.8-0.4-1.3-0.3
		c-0.2,0.1-0.4,0.2-0.5,0.4c-0.1,0.1-0.1,0.3-0.2,0.4c-0.1,0.5,0.1,0.9,0.5,1.2c0,0,0,0,0.1,0c0.1,0.1,0.2,0.1,0.4,0.1
		c0.6,0.1,1.3-0.3,1.4-0.9c0-0.1,0-0.1,0-0.2C51.9,37.3,51.9,37.2,51.9,37.1z"/>
</g>
</svg>
