<?xml version="1.0" encoding="utf-8"?>
<!-- Generator: Adobe Illustrator 25.2.0, SVG Export Plug-In . SVG Version: 6.00 Build 0)  -->
<svg version="1.1" id="katman_1" xmlns="http://www.w3.org/2000/svg" xmlns:xlink="http://www.w3.org/1999/xlink" x="0px" y="0px"
	 viewBox="0 0 180 180" style="enable-background:new 0 0 180 180;" xml:space="preserve">
<style type="text/css">
	.st0{fill:#7700AA;}
	.st1{fill:none;stroke:#000000;stroke-width:2;stroke-linecap:round;stroke-linejoin:round;}
	.st2{fill:#F9F9F9;}
</style>
<g>
	<path class="st0" d="M44,46h96c2.2,0,4,1.8,4,4v59c0,28.7-23.3,52-52,52s-52-23.3-52-52V50C40,47.8,41.8,46,44,46z"/>
	<path class="st0" d="M67.1,48.5l18-18c3.9-3.9,10.2-3.9,14.1,0l18,18L92.2,73.5C92.2,73.5,67.1,48.5,67.1,48.5z M92.6,45.3
		c2.5,0,4.6-2,4.6-4.6s-2-4.6-4.6-4.6c0,0,0,0,0,0c-2.5,0-4.6,2-4.6,4.6C88.1,43.3,90.1,45.3,92.6,45.3z"/>
	<path class="st1" d="M68.7,46.9c-8.3-0.2-16.6-1.2-24.8-0.6c-1.3,0.1-2.8,1.5-2.9,2.8c-1.1,18.3-1.2,36.8-0.7,55.1
		c0.2,8.7,0.4,17.6,3,25.9c7.9,25.4,47.1,40.1,69.6,27.8 M73.4,43.5c32.5-37.5,16.7,2,52.7,2 M134.8,46.1c8.9,0,8.9,1.4,9,9.8
		c0.7,50.4,11.8,73-25.5,98.2"/>
	<circle class="st2" cx="92.5" cy="96.5" r="25.5"/>
	<path class="st1" d="M96.3,38.9c0.8,6.3-4.4,6.8-7.5,4.9c-3.2-1.9-2.7-8.9,3.9-8"/>
	<path class="st0" d="M103.7,89.6c0.7-0.8,2-0.9,2.7-0.1s0.8,2.1,0.1,2.9l-14.7,16.6c-0.8,0.9-2,0.9-2.8,0l-8.4-9.5
		c-0.7-0.8-0.7-2.1,0.1-2.9c0.8-0.8,2-0.8,2.7,0.1l7,7.9L103.7,89.6L103.7,89.6z"/>
	<path class="st1" d="M100.5,73.1c-44.1-8-43.7,45.5-10.9,49.5c30.2,3.7,37.5-32,17.3-47.2"/>
</g>
</svg>
