<?xml version="1.0" encoding="utf-8"?>
<!-- Generator: Adobe Illustrator 25.2.0, SVG Export Plug-In . SVG Version: 6.00 Build 0)  -->
<svg version="1.1" id="katman_1" xmlns="http://www.w3.org/2000/svg" xmlns:xlink="http://www.w3.org/1999/xlink" x="0px" y="0px"
	 viewBox="0 0 46 56" style="enable-background:new 0 0 46 56;" xml:space="preserve">
<style type="text/css">
	.st0{fill:#F036FF;}
</style>
<g>
	<path class="st0" d="M11.5,30C9.6,30,8,31.6,8,33.5c0,1.9,1.6,3.5,3.5,3.5s3.5-1.6,3.5-3.5S13.4,30,11.5,30z M11.5,34.8
		c-0.7,0-1.3-0.6-1.3-1.3s0.6-1.3,1.3-1.3s1.3,0.6,1.3,1.3S12.2,34.8,11.5,34.8z M34.5,30c-1.9,0-3.5,1.6-3.5,3.5
		c0,1.9,1.6,3.5,3.5,3.5s3.5-1.6,3.5-3.5S36.4,30,34.5,30z M34.5,34.8c-0.7,0-1.3-0.6-1.3-1.3s0.6-1.3,1.3-1.3s1.3,0.6,1.3,1.3
		S35.2,34.8,34.5,34.8z M28.8,32H17.2c-0.6,0-1.2,0.7-1.2,1.5s0.5,1.5,1.2,1.5h11.7c0.6,0,1.2-0.7,1.2-1.5S29.5,32,28.8,32z
		 M28.8,36H17.2c-0.6,0-1.2,0.7-1.2,1.5s0.5,1.5,1.2,1.5h11.7c0.6,0,1.2-0.7,1.2-1.5S29.5,36,28.8,36z"/>
	<path class="st0" d="M43.7,20.1v-1.9c0-1.5-1.2-2.6-2.7-2.6h-1.5v-3.9c0-1.2-0.6-2.3-1.4-3.1L38.2,4c0-1-0.4-2.1-1.1-2.8
		C36.3,0.4,35.3,0,34.3,0H11.6c-1.1,0-2.1,0.4-2.8,1.2C8.1,1.9,7.7,2.9,7.7,4l0.2,4.7c-0.9,0.8-1.3,1.9-1.3,3v3.9H5
		c-1.5,0-2.7,1.2-2.7,2.6v1.9C1,20.5,0,21.7,0,23.1v1.1c0,1.7,1.4,3.1,3.1,3.1h1.4c0.6,0,1.1-0.5,1.1-1.1l0,0v-5
		c0-0.6-0.5-1.1-1.1-1.1v-1.8c0-0.2,0.2-0.5,0.5-0.5h1.5v9.5c-1.6,0.5-2.7,2-2.7,3.7v11c-1.7,0.5-2.9,2.1-2.9,3.9
		c0,2.1,1.7,3.9,3.8,4.1c0.1,0,0.1,0,0.2,0h0.4v3.6c0,1.3,1.1,2.3,2.4,2.3h4.7c1.3,0,2.4-1.1,2.4-2.3V50h16.4v3.6
		c0,1.3,1.1,2.3,2.4,2.3h4.7c1.3,0,2.4-1.1,2.4-2.3V50h0.4c0.1,0,0.2,0,0.2,0c2.1-0.2,3.8-2,3.8-4.1c0-1.8-1.2-3.4-2.9-3.9V31
		c0-1.7-1.1-3.2-2.7-3.7v-9.5H41c0.3,0,0.5,0.2,0.5,0.5V20c-0.6,0-1.1,0.5-1.1,1.1v5c0,0.6,0.5,1.1,1.1,1.1l0,0h1.4
		c1.7,0,3.1-1.4,3.1-3.1V23C46,21.7,45,20.5,43.7,20.1L43.7,20.1z M3.4,25H3.1c-0.5,0-0.9-0.4-0.9-0.9V23c0-0.4,0.2-0.7,0.5-0.8
		c0.2,0.2,0.4,0.2,0.7,0.3C3.4,22.5,3.4,25,3.4,25z M10.4,2.7c0.3-0.3,0.8-0.5,1.2-0.5h22.6c0.5,0,0.9,0.2,1.2,0.5
		C35.8,3,36,3.5,36,3.9l-0.1,3.7c-0.2,0-0.4,0-0.6,0H10.7c-0.2,0-0.4,0-0.7,0.1L9.9,3.9C9.9,3.5,10.1,3,10.4,2.7z M8.8,11.7
		c0-0.9,0.6-1.6,1.4-1.9c0.2-0.1,0.4-0.1,0.6-0.1h24.6c0.2,0,0.3,0,0.5,0.1c0.9,0.2,1.5,1,1.5,1.9V14h-3.7c-0.6,0-1.1,0.5-1.1,1.1
		l0,0c0,0.6,0.5,1.1,1.1,1.1l0,0h3.7V27H22.9l-7.3-4.5c-0.5-0.3-1.2-0.2-1.5,0.4c-0.3,0.5-0.2,1.2,0.3,1.5l0,0l4.3,2.6H8.8V16.2
		h15.9c0.6,0,1.1-0.5,1.1-1.1l0,0c0-0.6-0.5-1.1-1.1-1.1l0,0H8.8V11.7z M12.6,53.7c0,0.1-0.1,0.2-0.2,0.2H7.7
		c-0.1,0-0.2-0.1-0.2-0.2V50h5v3.7H12.6z M38.4,53.7c0,0.1-0.1,0.2-0.2,0.2h-4.7c-0.1,0-0.2-0.1-0.2-0.2V50h5v3.7H38.4z M42.2,44.4
		c0.4,0.4,0.7,0.9,0.7,1.5s-0.3,1.1-0.7,1.5c-0.4,0.3-0.8,0.5-1.3,0.5H5.2c-0.5,0-1-0.2-1.3-0.5c-0.4-0.4-0.7-0.9-0.7-1.5
		s0.3-1.1,0.7-1.5c0.4-0.3,0.8-0.5,1.3-0.5h35.7C41.4,43.9,41.8,44.1,42.2,44.4L42.2,44.4z M40,30.9v10.8H6V30.9
		c0-0.9,0.8-1.7,1.7-1.7h30.5C39.2,29.2,40,30,40,30.9L40,30.9z M43.8,24.2c0,0.5-0.4,0.9-0.9,0.9h-0.3v-2.8h0.3
		c0.1,0,0.2,0,0.4,0.1c0.3,0.1,0.5,0.4,0.5,0.8V24.2z"/>
	<path class="st0" d="M31,14.2c0-0.2-0.1-0.4-0.2-0.5c-0.1-0.2-0.2-0.3-0.4-0.4c-0.2-0.1-0.3-0.2-0.5-0.2c-0.3-0.1-0.6,0-0.9,0.1
		c-0.4,0.2-0.7,0.4-0.8,0.8C28,14.1,28,14.3,28,14.5s0,0.4,0.1,0.6c0.2,0.4,0.4,0.7,0.8,0.8c0.2,0.1,0.4,0.1,0.6,0.1s0.4,0,0.6-0.1
		c0.4-0.2,0.7-0.4,0.8-0.8C31,14.8,31,14.5,31,14.2L31,14.2z"/>
</g>
</svg>
